<?xml version="1.0" standalone="no"?>
<!DOCTYPE svg PUBLIC "-//W3C//DTD SVG 20010904//EN"
 "http://www.w3.org/TR/2001/REC-SVG-20010904/DTD/svg10.dtd">
<svg version="1.0" xmlns="http://www.w3.org/2000/svg"
 width="512.000000pt" height="512.000000pt" viewBox="0 0 512.000000 512.000000"
 preserveAspectRatio="xMidYMid meet">

<g transform="translate(0.000000,512.000000) scale(0.100000,-0.100000)"
fill="#000000" stroke="none">
<path d="M405 4469 c-179 -30 -313 -144 -377 -321 l-23 -63 0 -1525 0 -1525
23 -63 c78 -216 230 -318 490 -330 l122 -5 0 1497 c0 823 2 1496 5 1496 2 0
434 -331 960 -735 l955 -735 955 735 c526 404 958 735 960 735 3 0 5 -673 5
-1496 l0 -1497 123 5 c259 12 411 114 489 330 l23 63 0 1525 0 1525 -23 64
c-54 149 -149 245 -297 300 -46 17 -89 24 -185 28 l-125 5 -962 -761 -963
-761 -962 760 -963 760 -90 -1 c-49 -1 -112 -5 -140 -10z"/>
</g>
</svg>
